<svg xmlns="http://www.w3.org/2000/svg" viewBox="0 0 365.45 565.58">
	<defs>
		<style>
			.cls-1 {
				fill: #a8a9ad;
				stroke: #000;
				stroke-miterlimit: 10;
				stroke-width: 10px;
			}
			.cls-2 {
				fill: #fff;
			}
			.cls-3 {
				fill: #bf1e2d;
			}
		</style>
	</defs>
	<title>akashhashanLogo</title>
	<g id="Layer_2" data-name="Layer 2">
		<g id="Layer_4" data-name="Layer 4"><circle class="cls-1" cx="182.73" cy="305.75" r="177.73"/><polygon points="247.53 135.85 247.53 185.5 321.04 160.86 239.57 298.8 333.55 250.29 184.1 489.03 52.37 565.58 155.06 400.74 31.91 432.19 130.43 300.32 52.37 320.78 178.94 116.91 247.46 11.05 247.53 135.85"/><polygon points="251.5 184.16 251.5 0 103.3 238.73 251.5 200.65 251.5 184.16"/><polygon class="cls-2" points="192.96 129.79 235.4 72.57 179.44 218.34 299.95 177.66 215.23 322.17 307.53 273.41 177.67 481.33 80.16 538.93 174.78 386.99 54.64 416.65 154.18 284.78 71.06 307.01 192.96 129.79"/><polygon class="cls-2" points="243.72 125.67 243.97 196.56 178.18 223.14 173.88 209.5 243.72 125.67"/><polygon class="cls-2" points="71.06 307.01 243.97 31.64 243.97 208.23 71.06 307.01"/><polygon class="cls-3" points="89.5 290.84 219.84 98.69 233.13 116.15 148.24 243.47 176.66 262.42 211.94 210.13 233.13 218.84 117.93 389.37 87.61 395.05 167.57 277.2 138.39 257.87 119.06 286.3 89.5 290.84"/><polygon class="cls-3" points="239.95 216.95 273.3 205.2 187.65 331.39 216.83 351.85 239.19 318.5 273.3 307.89 158.47 477.28 127.4 482.97 207.36 365.87 176.66 346.17 155.44 380.27 125.5 386.34 239.95 216.95"/><polygon class="cls-3" points="233.13 79.02 233.13 218.84 209 230.97 210.34 112.7 233.13 79.02"/><polygon class="cls-3" points="153.26 196.85 233.13 79.02 233.13 218.84 211.94 210.13 209.91 150.97 148.24 243.47 132.38 227.61 153.26 196.85"/></g>
	</g>
</svg>
