<svg xmlns="http://www.w3.org/2000/svg" viewBox="0 0 1366 652.18"><defs><style>.cls-1{fill:#fff;}.cls-2{fill:#0284a8;}.cls-3{fill:#02547d;}.cls-4{fill:#126287;}.cls-5{fill:#02549f;}</style></defs><title>index</title><g id="Layer_2" data-name="Layer 2"><g id="Artboard_1" data-name="Artboard 1"><g id="Layer_1-2" data-name="Layer 1"><polygon class="cls-1" points="745 0 1366 173.87 1366 550.6 451.61 652.18 625 531.61 0 617.55 0 0 745 0"/><polygon class="cls-2" points="579.07 563.81 0 618 627 531 579.07 563.81"/><polygon class="cls-3" points="1366 550.57 530.24 597.5 451.61 652.18 1346.74 560.11 1366 550.57"/><polygon class="cls-3" points="1366 173.87 1272.17 563.5 1366 550.57 1366 173.87"/><polygon class="cls-2" points="1290.25 488.43 1181 567.24 1274.03 567.24 1290.25 488.43"/><polygon class="cls-4" points="1366 173.87 1366 143.38 1219.82 132.94 1345.47 168.13 1366 173.87"/><polygon class="cls-5" points="1358.48 205.08 1345.47 168.13 1366 173.87 1358.48 205.08"/></g></g></g></svg>