<svg xmlns="http://www.w3.org/2000/svg" viewBox="0 0 1044.17 660.65"><defs><style>.cls-1{fill:#fff;}.cls-2{fill:#02547d;}.cls-3{fill:#0284a8;}</style></defs><title>login</title><g id="Layer_2" data-name="Layer 2"><g id="Artboard_2" data-name="Artboard 2"><polygon class="cls-1" points="200.21 0 730.38 41.16 646.76 69.2 1044.17 198.51 862.28 277.82 755.38 384 895.03 456.27 766.59 518.34 575.21 634.72 340.72 586.45 174.02 515.89 55.38 542.48 0 556.27 0 0 200.21 0"/><polygon class="cls-2" points="730.38 41.16 675.39 78.52 646.76 69.2 730.38 41.16"/><polygon class="cls-3" points="1044.17 198.51 803.07 252.4 755.38 384 860.17 291.26 1044.17 198.51"/><polygon class="cls-2" points="340.72 586.45 154.32 534.84 1 660.65 0 556.27 174.02 515.89 340.72 586.45"/><polygon class="cls-3" points="895.03 456.27 755.38 507.56 575.21 634.72 895.03 456.27"/></g></g></svg>