<svg xmlns="http://www.w3.org/2000/svg" viewBox="0 0 711.51 768"><defs><style>.cls-1{fill:#fff;}.cls-2{fill:#02547d;}.cls-3{fill:#0284a8;}</style></defs><title>product</title><g id="Layer_2" data-name="Layer 2"><g id="Artboard_3" data-name="Artboard 3"><polygon class="cls-1" points="615.74 0 705.22 184.78 641.98 149.44 705.22 420.99 642.65 577.02 660.48 768 45.91 768 117.22 397.71 72.82 196.85 0 47.77 0 0 615.74 0"/><polygon class="cls-2" points="0 47.77 105.78 182.2 121.93 397.71 83.58 616.68 112.51 768 45.91 768 117.22 397.71 72.82 196.85 0 47.77"/><polygon class="cls-3" points="705.22 184.78 657.49 0 615.74 0 705.22 184.78"/><polygon class="cls-2" points="671.29 165.82 705.22 420.99 641.98 149.44 671.29 165.82"/><polygon class="cls-2" points="699.68 768 655.12 581.3 711.5 420.99 705.22 420.99 642.65 577.02 660.48 768 699.68 768"/><polygon class="cls-3" points="711.5 420.99 701.43 392.55 705.22 420.99 711.5 420.99"/><polygon class="cls-3" points="21.26 74.79 63.76 0 0 0 0 47.77 21.26 74.79"/></g></g></svg>