<svg xmlns="http://www.w3.org/2000/svg" viewBox="0 0 216.05 240"><defs><style>.cls-1{fill:#191a1d;}</style></defs><title>Artboard three</title><g id="Layer_2" data-name="Layer 2"><g id="Artboard_three" data-name="Artboard three"><path class="cls-1" d="M96.05,0A119.48,119.48,0,0,0,20.46,26.81c11.43-3,24-2.08,36.65,3.1,13.52,5.52,21.17,12.58,24.31,16.37L78.56,60.71A50.28,50.28,0,0,0,57.62,47.84C26.48,37.79,0,60.61,0,115.58c0,51.24,24.18,76.35,56.94,65.78,8.75-2.82,16.94-7.93,21.9-13.16l2.45,14.12c-4.4,5.15-13.87,12.55-27.5,18.11-16.72,6.83-33.76,6.66-48-1.33A120,120,0,1,0,96.05,0Zm13.32,177.73c-6.52,2.66-14.3,2.06-18.53-1.19L93.45,161c4.45,3.48,10.54,5.42,16.5,3.49,8-2.61,12.38-11.85,12.38-23.19,0-10.5-3-16.29-11.06-22-11.07-7.18-18.76-18.79-18.76-38,0-21.19,9.71-33,22.43-27.77a26.57,26.57,0,0,1,12.23,10.31l-1.83,10.91c-1.73-2.48-5.39-7-10.67-8.68-8.74-2.83-12.34,6.47-12.34,15.22,0,12,4.2,18.28,13,25.41,9.5,7.71,13.89,16.44,13.89,32.15C129.18,155.36,123.3,172,109.37,177.73Zm36.32-14.83a9.54,9.54,0,0,1-10.57-2.21l1.46-11.47c2.5,2.84,6,4.66,9.44,3.54,4.79-1.55,7.41-8.52,7.41-17.37,0-8.21-1.8-12.76-6.63-17.24-6.41-5.48-10.75-14.13-10.75-28.43,0-15.82,5.49-25.32,12.93-22.29a15.33,15.33,0,0,1,7.42,7.22l-1.13,8.67c-1.06-1.86-3.28-5.16-6.45-6.19-5.14-1.66-7.22,5.59-7.22,12.22,0,9.08,2.43,13.77,7.59,19.13,5.75,6,8.46,12.84,8.46,25.23C157.65,146.74,154,159.49,145.69,162.9Z"/></g></g></svg>