<svg xmlns="http://www.w3.org/2000/svg" viewBox="0 0 448.96 219.38"><defs><style>.cls-1,.cls-6,.cls-7{fill:#fff;}.cls-15,.cls-2,.cls-3,.cls-9{fill:#4d385d;}.cls-2{opacity:0.1;}.cls-10,.cls-2,.cls-6,.cls-7,.cls-9{isolation:isolate;}.cls-4{fill:#5aaedf;}.cls-5{fill:#fcbc1b;}.cls-6{opacity:0.25;}.cls-12,.cls-7{opacity:0.2;}.cls-8{fill:#ec6363;}.cls-9{opacity:0.15;}.cls-10,.cls-11{fill:none;stroke-linecap:round;stroke-linejoin:round;}.cls-10,.cls-11,.cls-15{stroke:#4d385d;stroke-width:6px;}.cls-10{opacity:0.8;}.cls-13{fill:#2cc990;}.cls-14{fill:#5d6d80;}.cls-15{stroke-miterlimit:10;}</style></defs><title>School</title><g id="Layer_2" data-name="Layer 2"><g id="School"><g id="Back_building" data-name="Back building"><rect class="cls-1" x="25.87" y="136.89" width="397.42" height="79.48"/><polygon class="cls-2" points="371.13 206.21 371.13 136.89 362.13 136.89 362.13 206.21 25.87 206.21 25.87 216.38 423.29 216.38 423.29 206.21 371.13 206.21"/><path class="cls-3" d="M423.28,218.36H25.86a2,2,0,0,1-2-2V136.89a2,2,0,0,1,2-2H423.28a2,2,0,0,1,2,2v79.49A2,2,0,0,1,423.28,218.36Zm-395.43-4H421.29V138.88H27.85Z"/><rect class="cls-4" x="360.93" y="157.8" width="19.05" height="29.31"/><path class="cls-3" d="M380,188.44H360.93a1.33,1.33,0,0,1-1.32-1.33V157.8a1.32,1.32,0,0,1,1.32-1.33H380a1.32,1.32,0,0,1,1.32,1.33v29.31A1.33,1.33,0,0,1,380,188.44Zm-17.73-2.65h16.41V159.12H362.26Z"/><rect class="cls-5" x="356.54" y="183.18" width="27.85" height="6.7"/><rect class="cls-6" x="356.54" y="183.18" width="27.85" height="2.98"/><path class="cls-3" d="M384.39,191.21H356.57a1.34,1.34,0,0,1-1.33-1.33v-6.7a1.34,1.34,0,0,1,1.33-1.33h27.82a1.33,1.33,0,0,1,1.32,1.33v6.7A1.33,1.33,0,0,1,384.39,191.21Zm-26.5-2.65h25.17V184.5H357.89Z"/><path class="cls-2" d="M346.33,189.91H385v1.49a4,4,0,0,1-4,4H350.32a4,4,0,0,1-4-4v-1.49Z"/><path class="cls-4" d="M427.18,156.78v29.31h-9.53V166.31a9.53,9.53,0,0,1,9.53-9.53Z"/><polygon class="cls-6" points="427.18 158.37 427.18 163.47 417.65 173 417.65 167.89 427.18 158.37"/><path class="cls-2" d="M416.76,188.48V190a4,4,0,0,0,4,4h3.64v-5.45Z"/><polygon class="cls-6" points="427.18 166.17 427.18 168.72 417.65 178.25 417.65 175.69 427.18 166.17"/><polygon class="cls-6" points="427.18 171.42 427.18 173.98 417.65 183.5 417.65 180.94 427.18 171.42"/><path class="cls-3" d="M427.18,187.42h-9.53a1.33,1.33,0,0,1-1.32-1.33V166.31a10.85,10.85,0,0,1,10.85-10.85,1.32,1.32,0,0,1,1.32,1.32v29.31A1.33,1.33,0,0,1,427.18,187.42Zm-8.2-2.65h6.87V158.21a8.21,8.21,0,0,0-6.87,8.1Z"/><rect class="cls-5" x="417.65" y="182.16" width="12.6" height="6.7"/><rect class="cls-6" x="417.65" y="182.16" width="12.6" height="3.09"/><path class="cls-3" d="M430.25,190.19H417.67a1.33,1.33,0,0,1-1.33-1.33v-6.7a1.33,1.33,0,0,1,1.33-1.33h12.58a1.33,1.33,0,0,1,1.32,1.33v6.7A1.33,1.33,0,0,1,430.25,190.19ZM419,187.54h9.94v-4.06H419Z"/><path class="cls-2" d="M32.83,188.48V190a4,4,0,0,1-4,4H25.2v-5.45Z"/><path class="cls-4" d="M22,156.78v29.31h9.53V166.31A9.53,9.53,0,0,0,22,156.78Z"/><polygon class="cls-6" points="30.63 160.19 30.63 165.3 21.11 174.82 21.11 169.72 30.63 160.19"/><polygon class="cls-6" points="30.63 168 30.63 170.55 21.11 180.08 21.11 177.53 30.63 168"/><polygon class="cls-6" points="30.63 173.25 30.63 175.81 21.11 185.33 21.11 182.78 30.63 173.25"/><path class="cls-3" d="M31.51,187.42H22a1.33,1.33,0,0,1-1.32-1.33V156.78A1.32,1.32,0,0,1,22,155.46a10.86,10.86,0,0,1,10.85,10.85v19.78A1.33,1.33,0,0,1,31.51,187.42Zm-8.2-2.65h6.87V166.31a8.22,8.22,0,0,0-6.87-8.1Z"/><rect class="cls-5" x="18.91" y="182.16" width="12.6" height="6.7"/><rect class="cls-6" x="18.91" y="182.16" width="12.6" height="3.35"/><path class="cls-3" d="M31.51,190.19H18.92a1.33,1.33,0,0,1-1.32-1.33v-6.7a1.33,1.33,0,0,1,1.32-1.33H31.51a1.33,1.33,0,0,1,1.32,1.33v6.7A1.33,1.33,0,0,1,31.51,190.19Zm-11.26-2.65h9.93v-4.06H20.25Z"/><path class="cls-2" d="M65.6,189.91h38.65v1.49a4,4,0,0,1-4,4H69.58a4,4,0,0,1-4-4v-1.49Z"/><rect class="cls-4" x="69.17" y="157.8" width="19.05" height="29.31"/><rect class="cls-7" x="69.17" y="157.8" width="19.05" height="9.05"/><path class="cls-3" d="M88.22,188.44H69.16a1.33,1.33,0,0,1-1.32-1.33V157.8a1.32,1.32,0,0,1,1.32-1.33H88.22a1.32,1.32,0,0,1,1.32,1.33v29.31A1.33,1.33,0,0,1,88.22,188.44Zm-17.73-2.65h16.4V159.12H70.49Z"/><rect class="cls-5" x="64.76" y="183.18" width="27.85" height="6.7"/><rect class="cls-6" x="64.76" y="183.18" width="27.85" height="3.64"/><path class="cls-3" d="M92.62,191.21H64.8a1.33,1.33,0,0,1-1.33-1.33v-6.7a1.33,1.33,0,0,1,1.33-1.33H92.62a1.33,1.33,0,0,1,1.32,1.33v6.7A1.33,1.33,0,0,1,92.62,191.21Zm-26.5-2.65H91.29V184.5H66.12Z"/><polygon class="cls-8" points="429.83 136.23 19.32 136.23 32.2 82.64 416.95 82.64 429.83 136.23"/><polygon class="cls-7" points="420.28 96.49 416.95 82.64 32.2 82.64 29.67 93.17 29.67 93.17 19.32 136.23 32.83 136.23 43.2 93.29 420.28 96.49"/><path class="cls-3" d="M429.83,138.22H19.32a2,2,0,0,1-2-2,1.75,1.75,0,0,1,.05-.46L30.27,82.18a2,2,0,0,1,1.93-1.52H417a2,2,0,0,1,1.93,1.52l12.88,53.59a2,2,0,0,1-1.47,2.39A1.76,1.76,0,0,1,429.83,138.22Zm-408-4H427.31L415.39,84.63H33.76Z"/><polygon class="cls-9" points="72.23 82.08 66.49 99.57 76.43 99.57 76.43 136.23 87.03 136.23 86.9 93.17 77.76 93 79.56 81.25 72.23 82.08"/><polygon class="cls-9" points="376.92 82.74 382.66 100.24 372.72 100.24 372.72 136.89 362.13 136.89 362.26 93.84 371.39 93.66 369.6 81.92 376.92 82.74"/><line class="cls-10" x1="421.3" y1="102.45" x2="408.39" y2="102.45"/><line class="cls-11" x1="412.03" y1="118.8" x2="395.14" y2="118.8"/><line class="cls-11" x1="389.18" y1="107.42" x2="376.59" y2="107.42"/><line class="cls-11" x1="376.59" y1="121.33" x2="365.66" y2="121.33"/><line class="cls-11" x1="400.27" y1="96.31" x2="385.71" y2="96.31"/><line class="cls-11" x1="67.84" y1="94.83" x2="54.68" y2="94.83"/><line class="cls-11" x1="87.03" y1="106.75" x2="76.43" y2="106.75"/><line class="cls-11" x1="74.44" y1="118.8" x2="63.44" y2="118.8"/><line class="cls-11" x1="63.44" y1="108.74" x2="50.38" y2="108.74"/><line class="cls-11" x1="50.38" y1="128.93" x2="38.45" y2="128.93"/><line class="cls-11" x1="38.45" y1="116.83" x2="29.67" y2="116.83"/><line class="cls-11" x1="38.45" y1="101.79" x2="27.86" y2="101.79"/></g><g id="Front_Building" data-name="Front Building"><rect class="cls-1" x="86.9" y="93.18" width="275.36" height="123.2"/><path class="cls-2" d="M339.41,106l-3.56,6a23.11,23.11,0,0,1-17.18,11.26v93.11H130.46V122.85a23.17,23.17,0,0,1-16-11.11l-3.31-5.68,21.74-12.88H317Z"/><rect class="cls-2" x="86.9" y="201.72" width="275.36" height="14.65"/><path class="cls-3" d="M362.25,218.36H86.9a2,2,0,0,1-2-2V93.18a2,2,0,0,1,2-2H362.25a2,2,0,0,1,2,2v123.2A2,2,0,0,1,362.25,218.36Zm-273.36-4H360.26V95.16H88.89Z"/><polygon class="cls-8" points="372.72 93 76.43 93 94.05 26.87 355.11 26.87 372.72 93"/><polygon class="cls-2" points="372.72 93 77.76 93 81.19 75.62 369.3 75.62 372.72 93"/><polygon class="cls-7" points="358.21 36.87 355.11 26.87 108.89 26.87 95.84 26.87 94.05 26.87 90.94 36.87 92.9 36.87 76.7 91.96 91.73 91.96 106.25 36.87 358.21 36.87"/><polygon class="cls-2" points="318.29 93.17 134.19 93.17 224.41 39.68 318.29 93.17"/><path class="cls-3" d="M372.72,95H76.43a2,2,0,0,1-2-2,1.7,1.7,0,0,1,.07-.51L92.13,26.36a2,2,0,0,1,1.92-1.47H355.1A2,2,0,0,1,357,26.36l17.61,66.13a2,2,0,0,1-1.41,2.43A2.1,2.1,0,0,1,372.72,95ZM79,91H370.14L353.58,28.86h-258Z"/><polygon class="cls-1" points="312.08 216.38 137.07 216.38 137.07 102.27 224.58 51.27 312.08 102.27 312.08 216.38"/><path class="cls-2" d="M147,177.08h38.65v1.46a4,4,0,0,1-4,4H150.94a4,4,0,0,1-4-4v-1.46Z"/><path class="cls-2" d="M263.2,177.08h38.65v1.46a4,4,0,0,1-4,4h-30.7a4,4,0,0,1-4-4v-1.46Z"/><path class="cls-2" d="M318.52,181.93h38.64v1.49a4,4,0,0,1-4,4H322.5a4,4,0,0,1-4-4v-1.49Z"/><rect class="cls-2" x="300.08" y="102.45" width="11.6" height="112.98"/><path class="cls-3" d="M312.08,218.36h-175a2,2,0,0,1-2-2V102.27a2,2,0,0,1,1-1.72l87.51-51a2,2,0,0,1,2,0l87.49,51a2,2,0,0,1,1,1.72V216.38A2,2,0,0,1,312.08,218.36Zm-173-4h171v-111L224.57,53.57l-85.51,49.85Z"/><path class="cls-2" d="M313.4,106.41v18.11a16.39,16.39,0,0,1-4.89-1.82L223.82,74.55,143.4,122.27a16.6,16.6,0,0,1-5,2V106l85.45-50.65Z"/><path class="cls-8" d="M309.18,114.68,224.48,66.5l-80.42,47.79a16.42,16.42,0,0,1-22.5-5.73.75.75,0,0,1-.07-.12h0l103-61.07,107.16,61.07-.16.27A16.42,16.42,0,0,1,309.18,114.68Z"/><path class="cls-7" d="M331.64,108.41l-.16.26a16.29,16.29,0,0,1-5.45,5.65L224.48,56.44l-97.37,57.73a16.37,16.37,0,0,1-5.64-5.76l103-61.07Z"/><path class="cls-3" d="M317.24,118.8a18.28,18.28,0,0,1-9.05-2.4L224.5,68.8,145.09,116a18.41,18.41,0,0,1-25.23-6.42l-.08-.14a2,2,0,0,1,.7-2.71l103-61.07a2,2,0,0,1,2,0L332.62,106.7a2,2,0,0,1,.75,2.71v0l-.16.22A18.43,18.43,0,0,1,317.24,118.8ZM224.51,64.51a2,2,0,0,1,1,.27L310.16,113a14.5,14.5,0,0,0,18.66-3.86L224.5,49.65l-100.19,59.4a14.46,14.46,0,0,0,18.74,3.5l80.42-47.76a2,2,0,0,1,1-.28Z"/><path class="cls-1" d="M224.57,133.82h0a27.33,27.33,0,0,1,27.32,27.33h0v55.23H197.25V161.14A27.32,27.32,0,0,1,224.57,133.82Z"/><rect class="cls-2" x="197.26" y="205.07" width="54.65" height="11.31"/><path class="cls-3" d="M251.89,218.36H197.26a2,2,0,0,1-2-2V161.14a29.31,29.31,0,0,1,58.61,0v55.24A2,2,0,0,1,251.89,218.36Zm-52.65-4h50.67V161.14a25.34,25.34,0,0,0-50.67,0Z"/><path class="cls-4" d="M112.74,138.41h0a12.92,12.92,0,0,1,12.92,12.92h0v26.83H99.83V151.33a12.92,12.92,0,0,1,12.91-12.92Z"/><path class="cls-7" d="M124.55,145.8l-24.44,24.41v-15l16.06-16.05a12.91,12.91,0,0,1,8.35,6.62Z"/><path class="cls-7" d="M125.66,152.48v8.11l-18.72,18.72H99.83v-1.68l25.83-25.84C125.65,152.05,125.66,152.26,125.66,152.48Z"/><path class="cls-4" d="M337.84,138.41h0a12.92,12.92,0,0,1,12.91,12.92h0v26.83H324.92V151.33a12.92,12.92,0,0,1,12.92-12.92Z"/><path class="cls-7" d="M349.61,145.8l-24.4,24.41v-15l16.05-16.05a12.91,12.91,0,0,1,8.35,6.62Z"/><path class="cls-7" d="M350.76,152.48v8.11L332,179.31h-7.11v-1.68l25.83-25.84C350.75,152.05,350.76,152.26,350.76,152.48Z"/><circle class="cls-4" cx="224.58" cy="96.49" r="15.23"/><path class="cls-3" d="M224.57,113.38a16.89,16.89,0,1,1,16.89-16.89A16.89,16.89,0,0,1,224.57,113.38Zm0-30.47a13.58,13.58,0,1,0,13.58,13.58A13.58,13.58,0,0,0,224.57,82.91Z"/><path class="cls-3" d="M239.81,98.14H209.34a1.66,1.66,0,1,1,0-3.31h30.47a1.66,1.66,0,0,1,0,3.31Z"/><path class="cls-3" d="M224.57,113.38a1.65,1.65,0,0,1-1.65-1.66V81.25a1.66,1.66,0,0,1,3.31,0v30.47A1.66,1.66,0,0,1,224.57,113.38Z"/><path class="cls-3" d="M224.57,218.36a2,2,0,0,1-2-2V133.82a2,2,0,0,1,4,0v82.56A2,2,0,0,1,224.57,218.36Z"/><path class="cls-3" d="M125.66,179.81H99.83a1.65,1.65,0,0,1-1.66-1.65V151.33a14.58,14.58,0,0,1,29.15,0v26.83A1.65,1.65,0,0,1,125.66,179.81Zm-24.18-3.31H124V151.33a11.26,11.26,0,0,0-22.52,0Z"/><rect class="cls-5" x="93.87" y="172.82" width="37.75" height="9.09"/><rect class="cls-6" x="93.87" y="172.82" width="37.75" height="5.33"/><path class="cls-3" d="M131.62,183.56H93.87a1.65,1.65,0,0,1-1.66-1.65v-9.09a1.65,1.65,0,0,1,1.66-1.65h37.75a1.65,1.65,0,0,1,1.66,1.65v9.09A1.65,1.65,0,0,1,131.62,183.56Zm-36.1-3.31H130v-5.77H95.52Z"/><path class="cls-3" d="M112.74,174.48a1.65,1.65,0,0,1-1.65-1.66V138.41a1.66,1.66,0,0,1,3.31,0v34.41A1.66,1.66,0,0,1,112.74,174.48Z"/><rect class="cls-4" x="150.39" y="130.59" width="31.79" height="43.25"/><g class="cls-12"><polygon class="cls-1" points="175.25 130.59 150.39 154.05 150.39 143.57 164.16 130.59 175.25 130.59"/><polygon class="cls-1" points="182.18 133.01 182.18 140.02 150.39 170.02 150.39 163 182.18 133.01"/><polygon class="cls-1" points="182.18 145.42 182.18 152.44 159.49 173.84 152.05 173.84 182.18 145.42"/></g><path class="cls-3" d="M182.18,175.49H150.39a1.65,1.65,0,0,1-1.66-1.65V130.59a1.66,1.66,0,0,1,1.66-1.66h31.79a1.66,1.66,0,0,1,1.66,1.66v43.25A1.65,1.65,0,0,1,182.18,175.49ZM152,172.18h28.48V132.24H152Z"/><rect class="cls-5" x="147.41" y="168.51" width="37.75" height="9.09"/><rect class="cls-6" x="147.41" y="168.51" width="37.75" height="4.54"/><path class="cls-3" d="M185.16,179.25H147.41a1.66,1.66,0,0,1-1.66-1.66v-9.08a1.66,1.66,0,0,1,1.66-1.66h37.75a1.66,1.66,0,0,1,1.66,1.66v9.08A1.66,1.66,0,0,1,185.16,179.25Zm-36.1-3.31h34.45v-5.78H149.06Z"/><rect class="cls-4" x="266.63" y="130.59" width="31.79" height="43.25"/><g class="cls-12"><polygon class="cls-1" points="291.5 130.59 266.63 154.05 266.63 143.57 280.4 130.59 291.5 130.59"/><polygon class="cls-1" points="298.43 133.01 298.43 140.02 266.63 170.02 266.63 163 298.43 133.01"/><polygon class="cls-1" points="298.43 145.42 298.43 152.44 275.73 173.84 268.3 173.84 298.43 145.42"/></g><path class="cls-3" d="M298.43,175.49h-31.8a1.65,1.65,0,0,1-1.65-1.65V130.59a1.65,1.65,0,0,1,1.65-1.66h31.8a1.65,1.65,0,0,1,1.65,1.66v43.25A1.65,1.65,0,0,1,298.43,175.49Zm-30.14-3.31h28.48V132.24H268.29Z"/><rect class="cls-5" x="263.65" y="168.51" width="37.75" height="9.09"/><rect class="cls-6" x="263.65" y="168.51" width="37.75" height="4.54"/><path class="cls-3" d="M301.41,179.25H263.65a1.65,1.65,0,0,1-1.65-1.66v-9.08a1.65,1.65,0,0,1,1.65-1.66h37.76a1.65,1.65,0,0,1,1.65,1.66v9.08A1.65,1.65,0,0,1,301.41,179.25Zm-36.1-3.31h34.44v-5.78H265.31Z"/><path class="cls-3" d="M350.76,179.81H324.93a1.65,1.65,0,0,1-1.66-1.65V151.33a14.58,14.58,0,0,1,29.15,0v26.83A1.66,1.66,0,0,1,350.76,179.81Zm-24.18-3.31H349.1V151.33a11.26,11.26,0,0,0-22.52,0Z"/><rect class="cls-5" x="318.97" y="172.82" width="37.75" height="9.09"/><rect class="cls-6" x="318.97" y="172.82" width="37.75" height="4.77"/><path class="cls-3" d="M356.72,183.56H319a1.65,1.65,0,0,1-1.66-1.65v-9.09a1.65,1.65,0,0,1,1.66-1.65h37.75a1.65,1.65,0,0,1,1.66,1.65v9.09A1.65,1.65,0,0,1,356.72,183.56Zm-36.1-3.31h34.44v-5.77H320.62Z"/><path class="cls-3" d="M337.84,174.48a1.66,1.66,0,0,1-1.66-1.66V138.41a1.66,1.66,0,0,1,3.31,0v34.41A1.65,1.65,0,0,1,337.84,174.48Z"/><path class="cls-2" d="M196.35,193.15l-2.51,11.93h-.35l-2.41,11.51H177.21l-12.81-39h17.78v-15.4a12.78,12.78,0,0,1,5.37,10.35,12.58,12.58,0,0,1-.86,4.58,18.32,18.32,0,0,1,6.75,14.1,13.38,13.38,0,0,1-.05,1.42h2.7l-.11.51Z"/><path class="cls-13" d="M178.09,178.43a7.78,7.78,0,0,0,3-6.12,8.33,8.33,0,0,0-16.65,0,7.75,7.75,0,0,0,3,6.12A13.56,13.56,0,0,0,158.57,191c0,7.48,6.36,13.55,14.21,13.55S187,198.5,187,191A13.58,13.58,0,0,0,178.09,178.43Z"/><path class="cls-7" d="M175.51,204.3a14.67,14.67,0,0,1-2.73.25c-7.85,0-14.21-6.07-14.21-13.55a13.54,13.54,0,0,1,8.91-12.58,7.78,7.78,0,0,1-3-6.13,8.14,8.14,0,0,1,8.32-7.94,8.43,8.43,0,0,1,2.73.43,7.94,7.94,0,0,0-5.6,7.5,7.77,7.77,0,0,0,3,6.12,13.41,13.41,0,0,0,2.58,25.9Z"/><path class="cls-3" d="M172.78,206.21c-8.75,0-15.9-6.82-15.9-15.24a15,15,0,0,1,7.77-13.07,9.44,9.44,0,0,1-1.88-5.61,10,10,0,0,1,20,0,9.37,9.37,0,0,1-1.88,5.61A15,15,0,0,1,188.63,191C188.65,199.39,181.52,206.21,172.78,206.21Zm0-40.17a6.5,6.5,0,0,0-6.67,6.28,6.15,6.15,0,0,0,2.39,4.81,1.67,1.67,0,0,1,.28,2.33,1.75,1.75,0,0,1-.71.52,11.87,11.87,0,0,0-7.85,11c0,6.56,5.63,11.92,12.59,11.92s12.58-5.34,12.58-11.92a11.86,11.86,0,0,0-7.84-11,1.67,1.67,0,0,1-1-2.14,1.75,1.75,0,0,1,.52-.71,6.09,6.09,0,0,0,2.39-4.81,6.57,6.57,0,0,0-6.72-6.28Z"/><polygon class="cls-14" points="186.47 216.38 159.09 216.38 154.77 195.73 190.8 195.73 186.47 216.38"/><path class="cls-7" d="M189.69,201.06H169.1a6.37,6.37,0,0,0-6.26,7.7l1.6,7.65h-5.35l-4.32-20.65h36Z"/><path class="cls-2" d="M298.21,194.92l-2.51,11.92h-.35l-2.41,11.52H279l-13.25-52.21a13.44,13.44,0,0,1,10.3-4.75,13.12,13.12,0,0,1,13.29,12.91,12.82,12.82,0,0,1-.85,4.58,18.31,18.31,0,0,1,6.74,14.1,13.29,13.29,0,0,1-.05,1.41h2.71l-.1.52Z"/><path class="cls-13" d="M281.42,178.43a7.78,7.78,0,0,0,3-6.12,8.34,8.34,0,0,0-16.66,0,7.76,7.76,0,0,0,3,6.12A13.56,13.56,0,0,0,261.9,191c0,7.48,6.36,13.55,14.21,13.55s14.22-6.07,14.22-13.55A13.59,13.59,0,0,0,281.42,178.43Z"/><path class="cls-7" d="M278.84,204.82a14.67,14.67,0,0,1-2.73.25c-7.85,0-14.21-6.07-14.21-13.55a13.56,13.56,0,0,1,8.91-12.59,7.76,7.76,0,0,1-3-6.12,8.15,8.15,0,0,1,8.33-7.95,8.72,8.72,0,0,1,2.73.44,7.94,7.94,0,0,0-5.6,7.5,7.78,7.78,0,0,0,3,6.12,13.56,13.56,0,0,0-8.91,12.58A13.72,13.72,0,0,0,278.84,204.82Z"/><path class="cls-3" d="M276.11,206.21c-8.75,0-15.9-6.82-15.9-15.24A15,15,0,0,1,268,177.9a9.44,9.44,0,0,1-1.88-5.61,10,10,0,0,1,20,0,9.44,9.44,0,0,1-1.88,5.61A15,15,0,0,1,292,191C292,199.39,284.85,206.21,276.11,206.21Zm0-40.17a6.49,6.49,0,0,0-6.67,6.28,6.15,6.15,0,0,0,2.39,4.81,1.67,1.67,0,0,1,.28,2.33,1.78,1.78,0,0,1-.72.52,11.88,11.88,0,0,0-7.84,11c0,6.56,5.63,11.92,12.59,11.92s12.58-5.34,12.58-11.92a11.86,11.86,0,0,0-7.84-11,1.66,1.66,0,0,1-1-2.14,1.75,1.75,0,0,1,.52-.71,6.09,6.09,0,0,0,2.39-4.81,6.57,6.57,0,0,0-6.72-6.28Z"/><polygon class="cls-14" points="289.56 216.38 262.18 216.38 257.86 195.73 293.88 195.73 289.56 216.38"/><path class="cls-7" d="M293,201.54H272.42a6.37,6.37,0,0,0-6.25,7.7l1.6,7.65h-5.35l-4.32-20.64h36Z"/><path class="cls-3" d="M186.47,218H159.09a1.66,1.66,0,0,1-1.62-1.32l-4.32-20.65a1.65,1.65,0,0,1,1.29-1.95,1.24,1.24,0,0,1,.33,0h36a1.65,1.65,0,0,1,1.65,1.65,2,2,0,0,1,0,.34l-4.33,20.65A1.64,1.64,0,0,1,186.47,218Zm-26-3.31h24.69l3.63-17.33H156.81Z"/><path class="cls-3" d="M289.56,218H262.17a1.64,1.64,0,0,1-1.61-1.32l-4.33-20.65a1.65,1.65,0,0,1,1.28-1.95,1.32,1.32,0,0,1,.34,0h36a1.65,1.65,0,0,1,1.65,1.65,2,2,0,0,1,0,.34l-4.33,20.65A1.64,1.64,0,0,1,289.56,218Zm-26-3.31h24.69l3.63-17.33H259.89Z"/><line class="cls-10" x1="362.25" y1="53.98" x2="333.11" y2="53.98"/><line class="cls-10" x1="315.98" y1="39.68" x2="286.83" y2="39.68"/><line class="cls-10" x1="311.79" y1="59.94" x2="294.33" y2="59.94"/><line class="cls-10" x1="263.27" y1="51.27" x2="245.8" y2="51.27"/><line class="cls-10" x1="356.42" y1="75.62" x2="338.95" y2="75.62"/><line class="cls-10" x1="292.09" y1="75.62" x2="274.63" y2="75.62"/><line class="cls-10" x1="212.61" y1="39.68" x2="195.15" y2="39.68"/><line class="cls-10" x1="177.15" y1="47.96" x2="153.08" y2="47.96"/><line class="cls-10" x1="174.52" y1="75.54" x2="150.44" y2="75.54"/><line class="cls-10" x1="137.7" y1="59.94" x2="113.63" y2="59.94"/><line class="cls-10" x1="114.4" y1="41.42" x2="90.77" y2="41.42"/><line class="cls-10" x1="99.28" y1="75.3" x2="81.5" y2="75.3"/><path class="cls-2" d="M93,181.91h38.65v1.48a4,4,0,0,1-4,4H97a4,4,0,0,1-4-4v-1.48Z"/><rect class="cls-3" x="229.43" y="172.26" width="2.43" height="8.08" rx="0.95" ry="0.95"/><rect class="cls-3" x="216.95" y="172.26" width="2.43" height="8.08" rx="0.95" ry="0.95"/></g><g id="Flag"><path class="cls-3" d="M224.48,48.66a2,2,0,0,1-2-2V2a2,2,0,0,1,4,0V46.68a2,2,0,0,1-2,2Z"/><polygon class="cls-13" points="254.21 31.47 236.62 31.47 236.62 13.89 254.21 13.89 247.58 22.68 254.21 31.47"/><polygon class="cls-7" points="254.21 13.89 250.17 19.24 236.62 19.24 236.62 13.89 254.21 13.89"/><path class="cls-3" d="M254.2,33.12H236.62A1.66,1.66,0,0,1,235,31.47V13.89a1.67,1.67,0,0,1,1.66-1.66H254.2a1.67,1.67,0,0,1,1.5.92,1.6,1.6,0,0,1-.16,1.73l-5.87,7.8,5.87,7.8a1.65,1.65,0,0,1-.33,2.31,1.6,1.6,0,0,1-1,.33Zm-15.9-3.31h12.59l-4.64-6.14a1.65,1.65,0,0,1,0-2l4.64-6.14H238.3Z"/><rect class="cls-13" x="224.48" y="7.66" width="17.58" height="17.58"/><rect class="cls-7" x="224.48" y="7.66" width="17.58" height="7.27"/><path class="cls-3" d="M242.06,26.91H224.48a1.66,1.66,0,0,1-1.66-1.66V7.65A1.66,1.66,0,0,1,224.48,6h17.58a1.66,1.66,0,0,1,1.65,1.66V25.24a1.65,1.65,0,0,1-1.64,1.67Zm-15.9-3.32H240.4V9.32H226.14Z"/></g><line class="cls-15" y1="216.38" x2="448.96" y2="216.38"/></g></g></svg>