<svg xmlns="http://www.w3.org/2000/svg" viewBox="0 0 240 60.51"><defs><style>.cls-1{fill:#fff;}</style></defs><title>Asset 7</title><g id="Layer_2" data-name="Layer 2"><g id="ArtBoard_One" data-name="ArtBoard One"><path class="cls-1" d="M240,0c-9.54,5.59-19.27,10.77-29,16s-19.55,10.16-29.39,15.09S161.9,40.8,152,45.55l-14.92,7.06-15,6.93-2.08,1-2.08-1-15-6.93L88,45.56C78.1,40.81,68.2,36,58.36,31.07S38.71,21.14,29,16,9.54,5.59,0,0C10.46,3.57,20.74,7.56,31,11.52s20.46,8.17,30.62,12.41S81.9,32.52,92,36.94l15.08,6.7,15,6.82h-4.16l15-6.82L148,37q15.1-6.63,30.34-13T209,11.53C219.27,7.57,229.54,3.58,240,0Z"/></g></g></svg>