<svg xmlns="http://www.w3.org/2000/svg" viewBox="0 0 1559 850.96"><defs><style>.cls-1{fill:#fff;}</style></defs><title>Asset 8</title><g id="Layer_2" data-name="Layer 2"><g id="Layer_7" data-name="Layer 7"><path class="cls-1" d="M1373.1,589.13c42.83,14.77,68.71,34,68.71,55,0,37.44-82.3,69.18-196.21,80.2a14.9,14.9,0,0,1,.89,5c0,25.71-69.34,47.24-162.32,52.78a18.85,18.85,0,0,1,1.63,7.59c0,33.83-95.6,61.26-213.52,61.26S658.76,823.53,658.76,789.7c0-5.83,2.83-11.46,8.12-16.8q-12.27-2.58-24.23-6h0c-62.85,8.85-135.71,13.9-213.38,13.9C192.18,780.82,0,733.72,0,675.61c0-29.87,50.79-56.82,132.36-76-27.93-17.53-44.47-39.34-44.47-63,0-28.65,24.31-54.61,63.73-73.53-8-10-12.23-20.45-12.23-31.23a42.88,42.88,0,0,1,2.79-15.06c-32.94-13.91-54.29-36.19-54.29-61.29,0-28.63,27.77-53.58,68.84-66.65C127.56,272.85,111,254.42,111,234.81c0-26,29.18-49.94,78.18-69A77.36,77.36,0,0,1,186,144C186,64.47,310.46,0,464,0c85.63,0,162.22,20.05,213.21,51.6a368.25,368.25,0,0,1,322.94,99,520.36,520.36,0,0,1,69.66-4.52c97.58,0,176.68,25.05,176.68,55.94,0,13.27-14.6,25.46-39,35.06,122.15,5.81,210.36,22.5,210.36,42.18,0,16.11-59.18,30.23-147.73,38C1292.62,331.82,1306,350,1306,369.76c0,15.89-8.65,30.79-23.77,43.61,154.14,2.35,276.8,42.15,276.8,90.9C1559,542.92,1481.88,576,1373.1,589.13Z"/></g></g></svg>