<svg xmlns="http://www.w3.org/2000/svg" viewBox="0 0 1559 805.25">
	<defs>
		<style>.cls-1{fill:#fff;}</style>
	</defs>
	<title>Layer 5</title>
	<g id="Layer_2" data-name="Layer 2">
		<g id="Layer_5" data-name="Layer 5">
			<path class="cls-1" d="M1373.1,543.42c42.83,14.77,68.71,34,68.71,55,0,37.44-82.3,69.18-196.21,80.2a14.9,14.9,0,0,1,.89,5c0,25.71-69.34,47.24-162.32,52.78a18.85,18.85,0,0,1,1.63,7.59c0,33.83-95.6,61.26-213.52,61.26S658.76,777.82,658.76,744c0-5.83,2.83-11.46,8.12-16.8q-12.27-2.58-24.23-6h0c-62.85,8.85-135.71,13.9-213.38,13.9C192.18,735.11,0,688,0,629.9c0-29.87,50.79-56.83,132.36-76-27.93-17.52-44.47-39.33-44.47-63,0-28.65,24.31-54.61,63.73-73.53-8-10-12.23-20.45-12.23-31.23a42.88,42.88,0,0,1,2.79-15.06C109.24,357.23,87.89,335,87.89,309.85c0-28.64,27.77-53.58,68.84-66.65C127.56,227.14,111,208.71,111,189.1c0-62.27,167.34-112.75,373.77-112.75q16.92,0,33.48.45h0a367.56,367.56,0,0,1,481.91,28,520.36,520.36,0,0,1,69.66-4.52c97.58,0,176.68,25.05,176.68,55.94,0,13.27-14.6,25.46-39,35.05,122.15,5.82,210.36,22.51,210.36,42.18,0,16.12-59.18,30.23-147.73,38,22.51,14.61,35.86,32.81,35.86,52.55,0,15.89-8.65,30.79-23.77,43.61,154.14,2.35,276.8,42.15,276.8,90.9C1559,497.21,1481.88,530.24,1373.1,543.42Z"/>
		</g>
	</g>
</svg>
