<svg xmlns="http://www.w3.org/2000/svg" viewBox="0 0 835.2 397.15"><defs><style>.cls-1{fill:#fff;}</style></defs><title>Layer 8</title><g id="Layer_2" data-name="Layer 2"><g id="Layer_8" data-name="Layer 8"><path class="cls-1" d="M733.26,344.62a35.7,35.7,0,0,1-1.13,6.49c-12.24,45.61-110.16,59-218.71,29.82q-9.43-2.54-18.56-5.38c-27.31,26.09-108.17,29.34-197.33,5.41C194.06,353.18,118.58,299.31,129,260.64c.2-.77.43-1.52.7-2.26C49,230.18-6.12,193,.55,168.18c5.54-20.65,52.34-27.3,116.28-19.74-4-8.2-5.19-16.1-3.23-23.42,7-26.11,52.6-38.37,115-35.13,19.93-73.45,125.13-109,235.16-79.5,58.54,15.72,106.67,46.7,136,83.35,2.93.61,5.87,1.32,8.84,2.11,46.14,12.39,78.32,41.89,71.87,65.89A27.06,27.06,0,0,1,670.59,176c42.65,17.13,74,40.93,83.68,63.28,53.48,25.29,86.27,55.16,80.21,77.73C828.67,338.63,788.56,348.19,733.26,344.62Z"/></g></g></svg>