<svg xmlns="http://www.w3.org/2000/svg" viewBox="0 0 844 401"><defs><style>.cls-1{fill:#fff;}</style></defs><title>Layer 7</title><g id="Layer_2" data-name="Layer 2"><g id="Layer_7" data-name="Layer 7"><path class="cls-1" d="M753.41,252.94a37,37,0,0,1,.59,6.56c0,47.22-91.11,85.5-203.5,85.5q-9.78,0-19.32-.38C511.57,376.9,434.31,401,342,401c-107.14,0-194-32.46-194-72.5,0-.79,0-1.58.1-2.36C62.83,319.83,0,298.21,0,272.5c0-21.38,43.48-39.94,107.19-49.21-6-6.89-9.19-14.21-9.19-21.79,0-27,40.85-50.69,102-63.75C200.2,61.64,292.58,0,406.5,0c60.62,0,115.13,17.45,152.91,45.25Q563.9,45,568.5,45C616.27,45,655,65.15,655,90a27.06,27.06,0,0,1-5.85,16.3c45.64,5.49,82.08,20.35,97.23,39.42C804.59,156.28,844,176.63,844,200,844,222.41,807.74,242.05,753.41,252.94Z"/></g></g></svg>