<svg xmlns="http://www.w3.org/2000/svg" viewBox="0 0 1535.19 127.77"><defs><style>.cls-1{fill:#fff;}</style></defs><title>Layer 4</title><g id="Layer_2" data-name="Layer 2"><g id="Layer_4" data-name="Layer 4"><path class="cls-1" d="M1535.19,87.29c.31,19.93-91.43,37.53-204.91,39.31-75,1.17-140.75-4.86-176.79-14.86h0c-26.34,7.4-84.81,13.17-152.75,14.23-84.4,1.32-154.39-5.08-166.45-14.65h0c-49,7.06-170.69,13.43-313.08,15.65-185.82,2.91-336.58-2.33-336.73-11.7,0-1.13,2.19-2.28,6.39-3.42C78.19,108.69.19,99.34,0,87.11c-.23-14.5,108.81-28.35,255.62-33.86-2.06-1-3.15-2.16-3.17-3.3C252.27,38.22,364.31,27,503,24.73,513.83,13.25,627.71,2.56,766.74.39,890.74-1.55,995,3.91,1024,13c31-2.29,73.74-4.08,120.91-4.81,95-1.49,172,1.83,172.13,7.41,0,2.36-13.66,4.74-36.68,6.82,107.51,6.14,176.07,16.83,176.28,30,0,2.36-2.13,4.71-6.33,7C1501.58,65.21,1535,75.31,1535.19,87.29Z"/></g></g></svg>