<svg xmlns="http://www.w3.org/2000/svg" viewBox="0 0 184.78 149.86"><defs><style>.cls-1{font-size:47.54px;font-family:Barlow-BoldItalic, Barlow;font-weight:700;font-style:italic;letter-spacing:0em;}.cls-2{letter-spacing:0.06em;}.cls-3{fill:none;stroke:#000;stroke-miterlimit:10;stroke-width:5px;}</style></defs><title>tresway</title><g id="Layer_2" data-name="Layer 2"><g id="Layer_1-2" data-name="Layer 1"><path d="M29.59,63.77l0,8.34a3.51,3.51,0,0,1-1,2.59L19,84.33a1.54,1.54,0,0,0-.36.93l.22,52.55a3.45,3.45,0,0,1-1,2.59l-5.95,5.94c-.66.65-1,.45-1-.62l-.23-52.56q.07-.64-.33-.24L1,102.33c-.31.3-.54.39-.7.26s-.24-.44-.24-1L0,93.3a3.39,3.39,0,0,1,.91-2.53L28.6,63.14C29.25,62.49,29.59,62.7,29.59,63.77Z"/><path d="M51.82,58.14c.33-.07.51.12.55.59a4.63,4.63,0,0,1,0,.9l-1,11a3.4,3.4,0,0,1-.3,1.29,2.06,2.06,0,0,1-.78.83A9,9,0,0,0,48.59,74c-.27.27-.7.77-1.31,1.51a21.41,21.41,0,0,0-4.77,13.21l.1,25.39a3.45,3.45,0,0,1-1,2.58l-6,6c-.66.65-1,.44-1-.63l-.18-45.46a3.48,3.48,0,0,1,1-2.59l6-5.94c.66-.65,1-.44,1,.63v2.94c0,.28,0,.41.1.39s.17-.18.27-.47Q45,63.79,48.84,60C50,58.78,51,58.17,51.82,58.14Z"/><path d="M78.61,64.87a4,4,0,0,1,.76-1.42.39.39,0,0,1,.56-.08l3.24,2a1,1,0,0,1,.37.67,4.89,4.89,0,0,1-.25,1.49A54.89,54.89,0,0,1,78.6,78.34a39.53,39.53,0,0,1-6.32,8.55Q67.12,92,63.72,91t-4.61-7.67a26.52,26.52,0,0,1-.59-4c-.11-1.22-.16-2.6-.16-4.11A84.59,84.59,0,0,1,59,65.28a59.14,59.14,0,0,1,4.49-15.79,39.75,39.75,0,0,1,8-12.3Q77,31.7,80.21,34t4.25,11.26q.29,3.33.32,6.63a3.36,3.36,0,0,1-.91,2.52L66.64,71.59a1,1,0,0,0-.3.87l.07.88a13.89,13.89,0,0,0,.28,1.72c.42,1.54,1.17,2.3,2.26,2.26s2.42-.84,4-2.42A25.74,25.74,0,0,0,78.61,64.87ZM68.44,53.3a22.57,22.57,0,0,0-1.67,5.8c-.18,1.32-.29,2.23-.34,2.71s.09.49.28.3l9.54-9.52a1,1,0,0,0,.3-.87A16,16,0,0,0,76.28,50c-.34-1.49-.93-2.37-1.76-2.61s-1.88.25-3.11,1.48A14.63,14.63,0,0,0,68.44,53.3Z"/><path d="M96.33,59.32Q93,59.18,92.55,54a13.49,13.49,0,0,1-.07-1.55l0-.49a3.39,3.39,0,0,1,.91-2.53l5.67-5.65c.61-.62.94-.75,1-.4v.67q0,2.1,1.35,2.22c.91.08,2-.57,3.44-2A15.46,15.46,0,0,0,108,39.76a9.12,9.12,0,0,0,1-4.46q-.12-1.41-1.17-1.17a12.85,12.85,0,0,0-3.14,1.47,32,32,0,0,1-4.1,1.9,8.5,8.5,0,0,1-5.36.79q-2.09-.59-2.47-5a29.68,29.68,0,0,1,1-10A41.27,41.27,0,0,1,97.9,13.11a40.39,40.39,0,0,1,6.48-8.56c3.36-3.35,6.11-4.85,8.28-4.5s3.4,2.42,3.73,6.21a15.52,15.52,0,0,1,.07,1.64A3.08,3.08,0,0,1,116.18,9a3.31,3.31,0,0,1-.67,1L110,15.47c-.65.65-1,.78-1,.39v-.58c0-1.36-.45-2.12-1.26-2.26s-1.9.47-3.29,1.86a16.72,16.72,0,0,0-3.19,4.42,8.38,8.38,0,0,0-1.06,4.48c.09,1.06.52,1.49,1.3,1.32a14.65,14.65,0,0,0,3.73-1.87c.4-.21.86-.46,1.38-.76s1.08-.58,1.68-.87q3.66-1.84,5.94-1.31c1.51.36,2.4,2.08,2.67,5.18a16.87,16.87,0,0,1,.08,1.72,34.58,34.58,0,0,1-3.29,14.28,43.15,43.15,0,0,1-8.83,12.75C101.42,57.71,98.55,59.42,96.33,59.32Z"/><text class="cls-1" transform="translate(90.01 120.1) rotate(-45) scale(1.29 1)">W<tspan class="cls-2" x="39.99" y="0">ay</tspan></text><line class="cls-3" x1="157.74" y1="2.73" x2="12.38" y2="148.09"/></g></g></svg>